<svg xmlns="http://www.w3.org/2000/svg" viewBox="0 0 1100 1700" width="1100" height="1700">
  <defs>
    <style>
      @font-face { font-family: 'mono'; }
      .bg { fill: #FFFFFF; }
      .bar-bg { fill: #111111; }
      .bar-text { fill: #00CC41; font-family: 'Courier New', monospace; font-size: 18px; font-weight: bold; }
      .bar-text-sm { fill: #00CC41; font-family: 'Courier New', monospace; font-size: 13px; }
      .bar-text-dim { fill: #888888; font-family: 'Courier New', monospace; font-size: 13px; }
      .section-title { fill: #00CC41; font-family: 'Courier New', monospace; font-size: 15px; font-weight: bold; letter-spacing: 1px; }
      .section-title-cyan { fill: #00B4D8; font-family: 'Courier New', monospace; font-size: 15px; font-weight: bold; letter-spacing: 1px; }
      .section-title-orange { fill: #FF8C00; font-family: 'Courier New', monospace; font-size: 15px; font-weight: bold; letter-spacing: 1px; }
      .h3 { fill: #1a1a1a; font-family: 'Courier New', monospace; font-size: 12px; font-weight: bold; }
      .body { fill: #1a1a1a; font-family: system-ui, -apple-system, sans-serif; font-size: 11px; line-height: 1.4; }
      .body-sm { fill: #1a1a1a; font-family: system-ui, -apple-system, sans-serif; font-size: 10px; }
      .code { fill: #1a1a1a; font-family: 'Courier New', monospace; font-size: 10.5px; }
      .code-green { fill: #00CC41; font-family: 'Courier New', monospace; font-size: 10.5px; }
      .code-cyan { fill: #00B4D8; font-family: 'Courier New', monospace; font-size: 10.5px; }
      .code-orange { fill: #FF8C00; font-family: 'Courier New', monospace; font-size: 10.5px; }
      .dim { fill: #666666; font-family: system-ui, -apple-system, sans-serif; font-size: 10px; }
      .dim-code { fill: #666666; font-family: 'Courier New', monospace; font-size: 10px; }
      .table-header { fill: #1a1a1a; font-family: 'Courier New', monospace; font-size: 10.5px; font-weight: bold; }
      .table-cell { fill: #1a1a1a; font-family: system-ui, -apple-system, sans-serif; font-size: 10.5px; }
      .table-cell-code { fill: #1a1a1a; font-family: 'Courier New', monospace; font-size: 10px; }
      .pill-bg { fill: #111111; rx: 3; }
      .pill-text { fill: #00CC41; font-family: 'Courier New', monospace; font-size: 9.5px; }
      .border { stroke: #E0E0E0; stroke-width: 1; fill: none; }
      .border-section { stroke: #E0E0E0; stroke-width: 0.5; fill: none; }
      .divider { stroke: #E0E0E0; stroke-width: 0.5; }
      .code-bg { fill: #F5F5F5; rx: 3; }
      .mega-bg-seo { fill: #F0FFF4; }
      .mega-bg-design { fill: #F0F9FF; }
      .mega-bg-testing { fill: #FFF8F0; }
      .mega-bg-marketing { fill: #FFF0F5; }
      .mega-bg-saas { fill: #F5F0FF; }
      .mega-bg-devops { fill: #F0FFFF; }
      .zone-green { fill: #00CC41; }
      .zone-yellow { fill: #FFD700; }
      .zone-orange { fill: #FF8C00; }
      .zone-red { fill: #FF4444; }
      .zone-danger { fill: #CC0000; }
    </style>
  </defs>

  <!-- Background -->
  <rect class="bg" width="1100" height="1700"/>

  <!-- ==================== TOP BAR ==================== -->
  <rect class="bar-bg" x="0" y="0" width="1100" height="44"/>
  <text class="bar-text" x="28" y="27">CC COMMANDER -- QUICK REFERENCE</text>
  <text class="bar-text-dim" x="960" y="27">v1.6</text>
  <text class="bar-text-sm" x="1000" y="27">2026</text>

  <!-- ==================== ROW 1 ==================== -->
  <!-- Left Column: INSTALL & SETUP -->
  <rect class="border-section" x="16" y="56" width="530" height="282" rx="4"/>
  <text class="section-title" x="28" y="76">INSTALL &amp; SETUP</text>

  <!-- One-line install -->
  <text class="h3" x="28" y="96">One-Line Install</text>
  <rect class="code-bg" x="28" y="101" width="506" height="18" rx="3"/>
  <text class="code-green" x="34" y="114">curl -fsSL https://raw.githubusercontent.com/KevinZai/cc-commander/main/install-remote.sh | bash</text>

  <!-- Manual install -->
  <text class="h3" x="28" y="138">Manual Install</text>
  <rect class="code-bg" x="28" y="143" width="506" height="42" rx="3"/>
  <text class="code" x="34" y="156">git clone https://github.com/KevinZai/cc-commander.git</text>
  <text class="code" x="34" y="168">cd cc-commander</text>
  <text class="code" x="34" y="180">./install.sh</text>

  <!-- Key Files -->
  <text class="h3" x="28" y="202">Key Files</text>
  <text class="code-cyan" x="28" y="216">BIBLE.md</text>
  <text class="body-sm" x="108" y="216">Learning guide (read once, 7 chapters)</text>
  <text class="code-cyan" x="28" y="230">CHEATSHEET.md</text>
  <text class="body-sm" x="138" y="230">Daily reference (commands, workflows)</text>
  <text class="code-cyan" x="28" y="244">SKILLS-INDEX.md</text>
  <text class="body-sm" x="148" y="244">Searchable skill directory (220+ skills)</text>
  <text class="code-cyan" x="28" y="258">CLAUDE.md</text>
  <text class="body-sm" x="118" y="258">Project context (always loaded by Claude)</text>

  <!-- Quick commands -->
  <text class="h3" x="28" y="278">Quick Start Commands</text>
  <text class="code-green" x="28" y="292">/init</text>
  <text class="body-sm" x="78" y="292">Project wizard -- creates CLAUDE.md with stack context</text>
  <text class="code-green" x="28" y="306">/cc</text>
  <text class="body-sm" x="58" y="306">Command center -- interactive menu for everything</text>
  <text class="code-green" x="28" y="320">/plan</text>
  <text class="body-sm" x="78" y="320">Spec-first planning -- interview then spec doc</text>

  <!-- Right Column: THE KEVIN Z METHOD -->
  <rect class="border-section" x="554" y="56" width="530" height="282" rx="4"/>
  <text class="section-title" x="566" y="76">THE KEVIN Z METHOD</text>

  <!-- Build Types Table -->
  <text class="h3" x="566" y="96">Build Types</text>
  <!-- Header row -->
  <rect fill="#F5F5F5" x="566" y="101" width="506" height="16"/>
  <text class="table-header" x="572" y="113">Type</text>
  <text class="table-header" x="642" y="113">Time</text>
  <text class="table-header" x="722" y="113">Approach</text>
  <text class="table-header" x="902" y="113">Model</text>
  <!-- Rows -->
  <text class="code-green" x="572" y="130">QUICK</text>
  <text class="table-cell" x="642" y="130">&lt;4h</text>
  <text class="table-cell" x="722" y="130">Direct execute, ship fast</text>
  <text class="table-cell" x="902" y="130">Sonnet</text>

  <text class="code-cyan" x="572" y="146">DEEP</text>
  <text class="table-cell" x="642" y="146">1-5d</text>
  <text class="table-cell" x="722" y="146">Spec-first, TDD, subagents</text>
  <text class="table-cell" x="902" y="146">Opus</text>

  <text class="code-orange" x="572" y="162">SAAS</text>
  <text class="table-cell" x="642" y="162">1-4wk</text>
  <text class="table-cell" x="722" y="162">Full lifecycle: scaffold to ship</text>
  <text class="table-cell" x="902" y="162">Opus</text>

  <text class="code" x="572" y="178">OVERNIGHT</text>
  <text class="table-cell" x="642" y="178">6-12h</text>
  <text class="table-cell" x="722" y="178">Checkpoints, error recovery</text>
  <text class="table-cell" x="902" y="178">Opus</text>

  <!-- Golden Rule -->
  <line class="divider" x1="566" y1="190" x2="1072" y2="190"/>
  <text class="h3" x="566" y="208">Golden Rules</text>
  <text class="code-green" x="566" y="224">1.</text>
  <text class="body" x="582" y="224">Plan before coding -- /plan every multi-step task</text>
  <text class="code-green" x="566" y="238">2.</text>
  <text class="body" x="582" y="238">Context is milk -- fresh + condensed = best output</text>
  <text class="code-green" x="566" y="252">3.</text>
  <text class="body" x="582" y="252">Verify, don't trust -- always /verify before done</text>
  <text class="code-green" x="566" y="266">4.</text>
  <text class="body" x="582" y="266">Subagents = fresh context -- parallel work, no bloat</text>
  <text class="code-green" x="566" y="280">5.</text>
  <text class="body" x="582" y="280">CLAUDE.md = investment -- your rules compound over time</text>
  <text class="code-green" x="566" y="294">6.</text>
  <text class="body" x="582" y="294">Boring solutions win -- push back on complexity bias</text>
  <text class="code-green" x="566" y="308">7.</text>
  <text class="body" x="582" y="308">Operationalize fixes -- every bug becomes a test + rule</text>

  <!-- Confidence workflow -->
  <line class="divider" x1="566" y1="316" x2="1072" y2="316"/>
  <text class="h3" x="566" y="332">Workflow</text>
  <rect class="code-bg" x="650" y="321" width="412" height="14" rx="2"/>
  <text class="code" x="654" y="332">/init --> /plan --> implement --> /verify --> commit</text>

  <!-- ==================== ROW 2: MEGA-SKILLS ==================== -->
  <rect class="border-section" x="16" y="348" width="1068" height="168" rx="4"/>
  <text class="section-title-cyan" x="28" y="368">MEGA-SKILLS (6 DOMAINS -- LOAD ONE, GET EVERYTHING)</text>

  <!-- 6 columns -->
  <!-- mega-seo -->
  <rect class="mega-bg-seo" x="24" y="378" width="168" height="130" rx="3"/>
  <text class="h3" x="32" y="394">mega-seo</text>
  <text class="dim" x="106" y="394">(19 skills)</text>
  <line stroke="#00CC41" stroke-width="1" x1="32" y1="399" x2="184" y2="399"/>
  <text class="body-sm" x="32" y="413">Technical SEO</text>
  <text class="body-sm" x="32" y="426">AI search optimization</text>
  <text class="body-sm" x="32" y="439">Content strategy</text>
  <text class="body-sm" x="32" y="452">Analytics &amp; tracking</text>
  <text class="body-sm" x="32" y="465">Programmatic SEO</text>
  <text class="body-sm" x="32" y="478">SERP analysis</text>
  <text class="body-sm" x="32" y="491">Site architecture</text>

  <!-- mega-design -->
  <rect class="mega-bg-design" x="200" y="378" width="168" height="130" rx="3"/>
  <text class="h3" x="208" y="394">mega-design</text>
  <text class="dim" x="294" y="394">(35+)</text>
  <line stroke="#00B4D8" stroke-width="1" x1="208" y1="399" x2="360" y2="399"/>
  <text class="body-sm" x="208" y="413">Animations &amp; motion</text>
  <text class="body-sm" x="208" y="426">SVG / WebGL / Canvas</text>
  <text class="body-sm" x="208" y="439">Design systems</text>
  <text class="body-sm" x="208" y="452">Landing pages</text>
  <text class="body-sm" x="208" y="465">Impeccable polish suite</text>
  <text class="body-sm" x="208" y="478">Particle systems</text>
  <text class="body-sm" x="208" y="491">Visual effects</text>

  <!-- mega-testing -->
  <rect class="mega-bg-testing" x="376" y="378" width="168" height="130" rx="3"/>
  <text class="h3" x="384" y="394">mega-testing</text>
  <text class="dim" x="476" y="394">(15)</text>
  <line stroke="#FF8C00" stroke-width="1" x1="384" y1="399" x2="536" y2="399"/>
  <text class="body-sm" x="384" y="413">TDD (red/green/refactor)</text>
  <text class="body-sm" x="384" y="426">E2E (Playwright)</text>
  <text class="body-sm" x="384" y="439">Verification loops</text>
  <text class="body-sm" x="384" y="452">Visual testing</text>
  <text class="body-sm" x="384" y="465">Load testing</text>
  <text class="body-sm" x="384" y="478">QA workflows</text>
  <text class="body-sm" x="384" y="491">Regression testing</text>

  <!-- mega-marketing -->
  <rect class="mega-bg-marketing" x="552" y="378" width="168" height="130" rx="3"/>
  <text class="h3" x="560" y="394">mega-marketing</text>
  <text class="dim" x="666" y="394">(46)</text>
  <line stroke="#FF4488" stroke-width="1" x1="560" y1="399" x2="712" y2="399"/>
  <text class="body-sm" x="560" y="413">Content &amp; copywriting</text>
  <text class="body-sm" x="560" y="426">CRO &amp; conversion</text>
  <text class="body-sm" x="560" y="439">Growth channels</text>
  <text class="body-sm" x="560" y="452">Sales enablement</text>
  <text class="body-sm" x="560" y="465">Email sequences</text>
  <text class="body-sm" x="560" y="478">Ad creative</text>
  <text class="body-sm" x="560" y="491">Analytics</text>

  <!-- mega-saas -->
  <rect class="mega-bg-saas" x="728" y="378" width="168" height="130" rx="3"/>
  <text class="h3" x="736" y="394">mega-saas</text>
  <text class="dim" x="812" y="394">(20)</text>
  <line stroke="#8844FF" stroke-width="1" x1="736" y1="399" x2="888" y2="399"/>
  <text class="body-sm" x="736" y="413">Auth (better-auth)</text>
  <text class="body-sm" x="736" y="426">Billing (Stripe)</text>
  <text class="body-sm" x="736" y="439">Database (Drizzle+Neon)</text>
  <text class="body-sm" x="736" y="452">API design</text>
  <text class="body-sm" x="736" y="465">Frontend (Next+shadcn)</text>
  <text class="body-sm" x="736" y="478">SaaS metrics</text>
  <text class="body-sm" x="736" y="491">Onboarding flows</text>

  <!-- mega-devops -->
  <rect class="mega-bg-devops" x="904" y="378" width="168" height="130" rx="3"/>
  <text class="h3" x="912" y="394">mega-devops</text>
  <text class="dim" x="1000" y="394">(20)</text>
  <line stroke="#00CC41" stroke-width="1" x1="912" y1="399" x2="1064" y2="399"/>
  <text class="body-sm" x="912" y="413">CI/CD pipelines</text>
  <text class="body-sm" x="912" y="426">Docker &amp; containers</text>
  <text class="body-sm" x="912" y="439">AWS (Lambda, S3, IAM)</text>
  <text class="body-sm" x="912" y="452">Monitoring (Grafana)</text>
  <text class="body-sm" x="912" y="465">Zero-downtime deploy</text>
  <text class="body-sm" x="912" y="478">Terraform patterns</text>
  <text class="body-sm" x="912" y="491">GitHub Actions</text>

  <!-- ==================== ROW 3 ==================== -->
  <!-- Left Column: ESSENTIAL COMMANDS -->
  <rect class="border-section" x="16" y="526" width="530" height="390" rx="4"/>
  <text class="section-title" x="28" y="546">ESSENTIAL COMMANDS</text>

  <!-- Two-column command table -->
  <rect fill="#F5F5F5" x="28" y="554" width="506" height="14"/>
  <text class="table-header" x="34" y="565">Command</text>
  <text class="table-header" x="170" y="565">What it does</text>

  <text class="code-green" x="34" y="582">/init</text>
  <text class="table-cell" x="170" y="582">Initialize project -- creates CLAUDE.md with stack context</text>

  <text class="code-green" x="34" y="597">/plan</text>
  <text class="table-cell" x="170" y="597">Spec-first planning -- interview then spec doc</text>

  <text class="code-green" x="34" y="612">/cc</text>
  <text class="table-cell" x="170" y="612">Command center -- interactive menu (skills, settings, help)</text>

  <text class="code-green" x="34" y="627">/verify</text>
  <text class="table-cell" x="170" y="627">Run verification loop before claiming done</text>

  <text class="code-green" x="34" y="642">/checkpoint</text>
  <text class="table-cell" x="170" y="642">Git checkpoint -- save state mid-work</text>

  <text class="code-green" x="34" y="657">/tdd</text>
  <text class="table-cell" x="170" y="657">Test-driven workflow (write test first, then implement)</text>

  <text class="code-green" x="34" y="672">/code-review</text>
  <text class="table-cell" x="170" y="672">Multi-agent code review (runs 3 reviewers)</text>

  <text class="code-green" x="34" y="687">/build-fix</text>
  <text class="table-cell" x="170" y="687">Auto-resolve build errors after npm run build fails</text>

  <text class="code-green" x="34" y="702">/save-session</text>
  <text class="table-cell" x="170" y="702">Persist context to ~/.claude/sessions/</text>

  <text class="code-green" x="34" y="717">/resume-session</text>
  <text class="table-cell" x="170" y="717">Reload last saved session on startup</text>

  <text class="code-green" x="34" y="732">/compact</text>
  <text class="table-cell" x="170" y="732">Compress context, keeping key info</text>

  <text class="code-green" x="34" y="747">/cost</text>
  <text class="table-cell" x="170" y="747">Show token usage and cost for current session</text>

  <text class="code-green" x="34" y="762">/model</text>
  <text class="table-cell" x="170" y="762">Switch model for current session</text>

  <text class="code-green" x="34" y="777">/doctor</text>
  <text class="table-cell" x="170" y="777">Diagnose Claude Code setup issues</text>

  <text class="code-green" x="34" y="792">/orchestrate</text>
  <text class="table-cell" x="170" y="792">Multi-agent pipeline for complex work</text>

  <!-- CLI -->
  <line class="divider" x1="28" y1="802" x2="534" y2="802"/>
  <text class="h3" x="28" y="818">CLI Entry Points</text>
  <text class="code-cyan" x="34" y="834">claude</text>
  <text class="dim" x="110" y="834">Interactive REPL session</text>
  <text class="code-cyan" x="280" y="834">claude -c</text>
  <text class="dim" x="370" y="834">Continue last conversation</text>
  <text class="code-cyan" x="34" y="849">claude "task"</text>
  <text class="dim" x="140" y="849">One-shot task</text>
  <text class="code-cyan" x="280" y="849">claude -p "task"</text>
  <text class="dim" x="405" y="849">Print mode (stdout)</text>

  <text class="code-cyan" x="34" y="864">claude --resume &lt;id&gt;</text>
  <text class="dim" x="200" y="864">Resume specific session</text>
  <text class="code-cyan" x="370" y="864">claude update</text>
  <text class="dim" x="470" y="864">Update CLI</text>

  <!-- Useful flags -->
  <line class="divider" x1="28" y1="874" x2="534" y2="874"/>
  <text class="h3" x="28" y="890">Key Flags</text>
  <text class="code" x="34" y="905">--model &lt;m&gt;</text>
  <text class="dim" x="140" y="905">Set model</text>
  <text class="code" x="250" y="905">--headless</text>
  <text class="dim" x="340" y="905">CI/CD (no UI)</text>
  <text class="code" x="440" y="905">--max-turns &lt;n&gt;</text>

  <!-- Right Column: PROACTIVE HOOKS -->
  <rect class="border-section" x="554" y="526" width="530" height="390" rx="4"/>
  <text class="section-title-orange" x="566" y="546">PROACTIVE HOOKS (12)</text>

  <!-- Hook list -->
  <text class="code-orange" x="572" y="568">careful-guard</text>
  <text class="body-sm" x="700" y="568">Blocks rm -rf, DROP TABLE, force push, destructive ops</text>

  <text class="code-orange" x="572" y="588">pre-commit-verify</text>
  <text class="body-sm" x="720" y="588">Auto-runs tsc + lint before git commit</text>

  <text class="code-orange" x="572" y="608">context-guard</text>
  <text class="body-sm" x="700" y="608">Auto-saves session at 70% context usage</text>

  <text class="code-orange" x="572" y="628">auto-checkpoint</text>
  <text class="body-sm" x="714" y="628">Git stash every 10 file edits</text>

  <text class="code-orange" x="572" y="648">confidence-gate</text>
  <text class="body-sm" x="714" y="648">Warns on multi-file operations (>3 files)</text>

  <text class="code-orange" x="572" y="668">session-end-verify</text>
  <text class="body-sm" x="724" y="668">Summary and checklist on session end</text>

  <text class="code-orange" x="572" y="688">cost-alert</text>
  <text class="body-sm" x="672" y="688">Warns at $0.50, kills at $2.00 session spend</text>

  <text class="code-orange" x="572" y="708">auto-lessons</text>
  <text class="body-sm" x="690" y="708">Captures errors and corrections to lessons.md</text>

  <text class="code-orange" x="572" y="728">rate-predictor</text>
  <text class="body-sm" x="700" y="728">Predicts and warns about rate limit approach</text>

  <text class="code-orange" x="572" y="748">auto-notify</text>
  <text class="body-sm" x="682" y="748">Alerts on long-running operations (>30s)</text>

  <text class="code-orange" x="572" y="768">preuse-logger</text>
  <text class="body-sm" x="698" y="768">Logs all tool usage for audit trail</text>

  <text class="code-orange" x="572" y="788">status-checkin</text>
  <text class="body-sm" x="698" y="788">Task progress footer on every response</text>

  <!-- Hook lifecycle -->
  <line class="divider" x1="566" y1="802" x2="1072" y2="802"/>
  <text class="h3" x="566" y="818">Hook Lifecycle</text>
  <rect class="code-bg" x="566" y="824" width="506" height="16" rx="2"/>
  <text class="code" x="572" y="836">SessionStart --> PreToolUse --> PostToolUse --> Stop --> PreCompact</text>

  <text class="dim" x="572" y="858">SessionStart: load context, detect package manager</text>
  <text class="dim" x="572" y="872">PreToolUse: block dangerous patterns, validate params</text>
  <text class="dim" x="572" y="886">PostToolUse: auto-format, typecheck, log PRs</text>
  <text class="dim" x="572" y="900">Stop: cost tracking, session save, sound notification</text>

  <!-- ==================== ROW 4 ==================== -->
  <!-- Left Column: KEYBOARD SHORTCUTS -->
  <rect class="border-section" x="16" y="926" width="530" height="196" rx="4"/>
  <text class="section-title-cyan" x="28" y="946">KEYBOARD SHORTCUTS &amp; CONTEXT</text>

  <!-- Shortcuts - two sub-columns -->
  <text class="code-cyan" x="34" y="966">Tab</text>
  <text class="body-sm" x="110" y="966">Autocomplete slash commands</text>
  <text class="code-cyan" x="300" y="966">Ctrl+C</text>
  <text class="body-sm" x="370" y="966">Cancel current generation</text>

  <text class="code-cyan" x="34" y="982">Escape</text>
  <text class="body-sm" x="110" y="982">Cancel current input</text>
  <text class="code-cyan" x="300" y="982">Ctrl+D</text>
  <text class="body-sm" x="370" y="982">Exit Claude Code</text>

  <text class="code-cyan" x="34" y="998">Shift+Enter</text>
  <text class="body-sm" x="140" y="998">Multi-line input</text>
  <text class="code-cyan" x="300" y="998">Ctrl+R</text>
  <text class="body-sm" x="370" y="998">Reverse search history</text>

  <text class="code-cyan" x="34" y="1014">Opt+T (macOS)</text>
  <text class="body-sm" x="160" y="1014">Toggle extended thinking</text>
  <text class="code-cyan" x="300" y="1014">#</text>
  <text class="body-sm" x="320" y="1014">Add file/rule to context</text>

  <text class="code-cyan" x="34" y="1030">/clear</text>
  <text class="body-sm" x="110" y="1030">Reset conversation</text>
  <text class="code-cyan" x="300" y="1030">/compact</text>
  <text class="body-sm" x="380" y="1030">Compress context</text>

  <!-- CLAUDE.md hierarchy -->
  <line class="divider" x1="28" y1="1042" x2="534" y2="1042"/>
  <text class="h3" x="28" y="1058">CLAUDE.md Hierarchy (priority: highest to lowest)</text>
  <text class="code" x="34" y="1076">./src/CLAUDE.md</text>
  <text class="dim" x="180" y="1076">Subdirectory rules (highest priority)</text>
  <text class="code" x="34" y="1092">./CLAUDE.md</text>
  <text class="dim" x="150" y="1092">Project rules (override global)</text>
  <text class="code" x="34" y="1108">~/.claude/CLAUDE.md</text>
  <text class="dim" x="200" y="1108">Global rules (base, always loaded)</text>

  <!-- Right Column: KZ STATUS LINE -->
  <rect class="border-section" x="554" y="926" width="530" height="196" rx="4"/>
  <text class="section-title" x="566" y="946">KZ STATUS LINE</text>

  <!-- Status line example -->
  <rect fill="#111111" x="566" y="956" width="506" height="24" rx="3"/>
  <text fill="#888" font-family="Courier New, monospace" font-size="10" x="574" y="972">-- KZ</text>
  <!-- Gauge bar -->
  <rect fill="#333" x="612" y="962" width="100" height="10" rx="2"/>
  <rect fill="#00CC41" x="612" y="962" width="42" height="10" rx="2"/>
  <text fill="#00CC41" font-family="Courier New, monospace" font-size="9" x="716" y="972">42%</text>
  <text fill="#666" font-family="Courier New, monospace" font-size="9" x="740" y="972">|</text>
  <text fill="#00B4D8" font-family="Courier New, monospace" font-size="9" x="748" y="972">Opus</text>
  <text fill="#666" font-family="Courier New, monospace" font-size="9" x="774" y="972">|</text>
  <text fill="#FFD700" font-family="Courier New, monospace" font-size="9" x="782" y="972">$0.87</text>
  <text fill="#666" font-family="Courier New, monospace" font-size="9" x="816" y="972">|</text>
  <text fill="#888" font-family="Courier New, monospace" font-size="9" x="824" y="972">in:45K out:8K</text>
  <text fill="#666" font-family="Courier New, monospace" font-size="9" x="904" y="972">|</text>
  <text fill="#888" font-family="Courier New, monospace" font-size="9" x="912" y="972">12m</text>
  <text fill="#666" font-family="Courier New, monospace" font-size="9" x="934" y="972">|</text>
  <text fill="#00CC41" font-family="Courier New, monospace" font-size="9" x="942" y="972">+89</text>
  <text fill="#FF4444" font-family="Courier New, monospace" font-size="9" x="962" y="972">-21</text>
  <text fill="#666" font-family="Courier New, monospace" font-size="9" x="984" y="972">|</text>
  <text fill="#888" font-family="Courier New, monospace" font-size="9" x="992" y="972">my-project</text>

  <!-- Context zones -->
  <text class="h3" x="566" y="1000">Context Zones</text>
  <!-- Zone bars -->
  <rect class="zone-green" x="566" y="1006" width="100" height="12" rx="2"/>
  <text fill="#FFFFFF" font-family="Courier New, monospace" font-size="9" font-weight="bold" x="580" y="1016">0-50% GREEN</text>

  <rect class="zone-yellow" x="672" y="1006" width="100" height="12" rx="2"/>
  <text fill="#1a1a1a" font-family="Courier New, monospace" font-size="9" font-weight="bold" x="678" y="1016">50-70% YELLOW</text>

  <rect class="zone-orange" x="778" y="1006" width="100" height="12" rx="2"/>
  <text fill="#FFFFFF" font-family="Courier New, monospace" font-size="9" font-weight="bold" x="782" y="1016">70-80% ORANGE</text>

  <rect class="zone-red" x="884" y="1006" width="48" height="12" rx="2"/>
  <text fill="#FFFFFF" font-family="Courier New, monospace" font-size="9" font-weight="bold" x="888" y="1016">80-90</text>

  <rect class="zone-danger" x="936" y="1006" width="48" height="12" rx="2"/>
  <text fill="#FFFFFF" font-family="Courier New, monospace" font-size="9" font-weight="bold" x="940" y="1016">90%+!</text>

  <!-- Elements table -->
  <text class="h3" x="566" y="1036">Elements</text>
  <text class="code" x="572" y="1050">Context gauge</text>
  <text class="dim" x="680" y="1050">Usage % with color zones</text>

  <text class="code" x="572" y="1064">Model</text>
  <text class="dim" x="630" y="1064">Opus / Sonnet / Haiku</text>
  <text class="code" x="790" y="1064">Cost</text>
  <text class="dim" x="830" y="1064">Session USD</text>

  <text class="code" x="572" y="1078">Tokens</text>
  <text class="dim" x="630" y="1078">Input + output counts</text>
  <text class="code" x="790" y="1078">Lines</text>
  <text class="dim" x="830" y="1078">+added -removed</text>

  <text class="code" x="572" y="1092">Duration</text>
  <text class="dim" x="648" y="1092">Session time</text>
  <text class="code" x="790" y="1092">Rate limits</text>
  <text class="dim" x="870" y="1092">5h/7d usage %</text>

  <!-- Token optimization tips -->
  <line class="divider" x1="566" y1="1100" x2="1072" y2="1100"/>
  <text class="h3" x="566" y="1114">Tips: Don't edit CLAUDE.md mid-session (kills cache). /compact before 75%. Subagents for parallel work.</text>

  <!-- ==================== ROW 5: QUICK START BUNDLES ==================== -->
  <rect class="border-section" x="16" y="1132" width="1068" height="155" rx="4"/>
  <text class="section-title" x="28" y="1152">QUICK START BUNDLES</text>

  <!-- 4 columns -->
  <!-- Web Wizard -->
  <rect fill="#F0FFF4" x="24" y="1162" width="250" height="117" rx="3"/>
  <text class="h3" x="32" y="1178">Web Wizard</text>
  <rect class="pill-bg" x="32" y="1184" width="120" height="14" rx="7"/>
  <text class="pill-text" x="40" y="1194">frontend-patterns</text>
  <rect class="pill-bg" x="32" y="1202" width="115" height="14" rx="7"/>
  <text class="pill-text" x="40" y="1212">nextjs-app-router</text>
  <rect class="pill-bg" x="152" y="1202" width="60" height="14" rx="7"/>
  <text class="pill-text" x="158" y="1212">shadcn-ui</text>
  <rect class="pill-bg" x="32" y="1220" width="76" height="14" rx="7"/>
  <text class="pill-text" x="40" y="1230">tailwind-v4</text>
  <rect class="pill-bg" x="114" y="1220" width="100" height="14" rx="7"/>
  <text class="pill-text" x="120" y="1230">frontend-design</text>
  <rect class="pill-bg" x="32" y="1238" width="124" height="14" rx="7"/>
  <text class="pill-text" x="40" y="1248">landing-page-builder</text>
  <text class="dim" x="32" y="1272">Next.js + shadcn + Tailwind v4</text>

  <!-- Security Engineer -->
  <rect fill="#FFF8F0" x="282" y="1162" width="250" height="117" rx="3"/>
  <text class="h3" x="290" y="1178">Security Engineer</text>
  <rect class="pill-bg" x="290" y="1184" width="105" height="14" rx="7"/>
  <text class="pill-text" x="298" y="1194">pentest-checklist</text>
  <rect class="pill-bg" x="290" y="1202" width="114" height="14" rx="7"/>
  <text class="pill-text" x="298" y="1212">container-security</text>
  <rect class="pill-bg" x="410" y="1202" width="100" height="14" rx="7"/>
  <text class="pill-text" x="416" y="1212">aws-iam-security</text>
  <rect class="pill-bg" x="290" y="1220" width="56" height="14" rx="7"/>
  <text class="pill-text" x="298" y="1230">harden</text>
  <rect class="pill-bg" x="352" y="1220" width="40" height="14" rx="7"/>
  <text class="pill-text" x="358" y="1230">guard</text>
  <rect class="pill-bg" x="290" y="1238" width="150" height="14" rx="7"/>
  <text class="pill-text" x="298" y="1248">github-actions-security</text>
  <text class="dim" x="290" y="1272">Pentesting + hardening + compliance</text>

  <!-- Content Creator -->
  <rect fill="#F0F9FF" x="540" y="1162" width="250" height="117" rx="3"/>
  <text class="h3" x="548" y="1178">Content Creator</text>
  <rect class="pill-bg" x="548" y="1184" width="106" height="14" rx="7"/>
  <text class="pill-text" x="556" y="1194">content-strategy</text>
  <rect class="pill-bg" x="548" y="1202" width="110" height="14" rx="7"/>
  <text class="pill-text" x="556" y="1212">seo-content-brief</text>
  <rect class="pill-bg" x="664" y="1202" width="88" height="14" rx="7"/>
  <text class="pill-text" x="670" y="1212">seo-optimizer</text>
  <rect class="pill-bg" x="548" y="1220" width="30" height="14" rx="7"/>
  <text class="pill-text" x="554" y="1230">aaio</text>
  <rect class="pill-bg" x="584" y="1220" width="62" height="14" rx="7"/>
  <text class="pill-text" x="590" y="1230">blog-engine</text>
  <rect class="pill-bg" x="548" y="1238" width="80" height="14" rx="7"/>
  <text class="pill-text" x="556" y="1248">email-systems</text>
  <text class="dim" x="548" y="1272">SEO + content + AI discoverability</text>

  <!-- Full Stack SaaS -->
  <rect fill="#F5F0FF" x="798" y="1162" width="278" height="117" rx="3"/>
  <text class="h3" x="806" y="1178">Full Stack SaaS</text>
  <rect class="pill-bg" x="806" y="1184" width="70" height="14" rx="7"/>
  <text class="pill-text" x="814" y="1194">mega-saas</text>
  <rect class="pill-bg" x="882" y="1184" width="76" height="14" rx="7"/>
  <text class="pill-text" x="888" y="1194">mega-testing</text>
  <rect class="pill-bg" x="806" y="1202" width="60" height="14" rx="7"/>
  <text class="pill-text" x="814" y="1212">mega-seo</text>
  <rect class="pill-bg" x="872" y="1202" width="80" height="14" rx="7"/>
  <text class="pill-text" x="878" y="1212">mega-devops</text>
  <rect class="pill-bg" x="806" y="1220" width="76" height="14" rx="7"/>
  <text class="pill-text" x="814" y="1230">better-auth</text>
  <rect class="pill-bg" x="888" y="1220" width="120" height="14" rx="7"/>
  <text class="pill-text" x="894" y="1230">stripe-subscriptions</text>
  <rect class="pill-bg" x="806" y="1238" width="80" height="14" rx="7"/>
  <text class="pill-text" x="814" y="1248">drizzle-neon</text>
  <text class="dim" x="806" y="1272">Auth + billing + DB + deploy + SEO</text>

  <!-- ==================== ROW 6: WORKFLOWS & TROUBLESHOOTING ==================== -->
  <rect class="border-section" x="16" y="1297" width="530" height="190" rx="4"/>
  <text class="section-title" x="28" y="1317">POWER COMBOS (WORKFLOWS)</text>

  <text class="h3" x="28" y="1337">New Feature (full cycle)</text>
  <rect class="code-bg" x="28" y="1342" width="506" height="14" rx="2"/>
  <text class="code" x="34" y="1353">/plan --> spec --> /tdd --> implement --> /verify --> /code-review --> /pr</text>

  <text class="h3" x="28" y="1373">Bug Fix</text>
  <rect class="code-bg" x="28" y="1378" width="506" height="14" rx="2"/>
  <text class="code" x="34" y="1389">investigate --> root cause --> /tdd --> fix --> operationalize --> /verify</text>

  <text class="h3" x="28" y="1409">Design Work</text>
  <rect class="code-bg" x="28" y="1414" width="506" height="14" rx="2"/>
  <text class="code" x="34" y="1425">/plan --> brainstorming --> frontend-design --> /verify --> design-review</text>

  <text class="h3" x="28" y="1445">Content / SEO</text>
  <rect class="code-bg" x="28" y="1450" width="506" height="14" rx="2"/>
  <text class="code" x="34" y="1461">seo-content-brief --> content-strategy --> write --> seo-optimizer + aaio</text>

  <text class="h3" x="28" y="1481">Overnight Batch</text>
  <rect class="code-bg" x="28" y="1484" width="506" height="14" rx="2"/>
  <text class="code" x="34" y="1495">overnight-runner --> checkpoint file --> wrapper script --> notification</text>

  <!-- Right: TROUBLESHOOTING -->
  <rect class="border-section" x="554" y="1297" width="530" height="190" rx="4"/>
  <text class="section-title-orange" x="566" y="1317">TROUBLESHOOTING &amp; TIPS</text>

  <text class="code-orange" x="572" y="1337">Command not found?</text>
  <text class="body-sm" x="740" y="1337">npm install -g @anthropic-ai/claude-code</text>

  <text class="code-orange" x="572" y="1353">Auth / API error?</text>
  <text class="body-sm" x="720" y="1353">export ANTHROPIC_API_KEY=sk-ant-...</text>

  <text class="code-orange" x="572" y="1369">Permission denied?</text>
  <text class="body-sm" x="730" y="1369">Add to .claude/settings.json permissions.allow</text>

  <text class="code-orange" x="572" y="1385">Context full?</text>
  <text class="body-sm" x="690" y="1385">/compact or /save-session then start fresh</text>

  <text class="code-orange" x="572" y="1401">Stale lib docs?</text>
  <text class="body-sm" x="706" y="1401">Add "use context7" to your prompt</text>

  <text class="code-orange" x="572" y="1417">Build failing?</text>
  <text class="body-sm" x="694" y="1417">/build-fix or systematic-debugging skill</text>

  <text class="code-orange" x="572" y="1433">Wrong model?</text>
  <text class="body-sm" x="690" y="1433">Spawn subagent with desired model (don't switch)</text>

  <text class="code-orange" x="572" y="1449">No verification?</text>
  <text class="body-sm" x="710" y="1449">Always /verify before marking done</text>

  <text class="code-orange" x="572" y="1465">Hooks not firing?</text>
  <text class="body-sm" x="718" y="1465">Check ~/.claude/hooks/ permissions (chmod +x)</text>

  <text class="code-orange" x="572" y="1481">Missing skill?</text>
  <text class="body-sm" x="694" y="1481">grep -i "keyword" ~/.claude/SKILLS-INDEX.md</text>

  <!-- ==================== ROW 7: COMP SYSTEM + MODEL COSTS ==================== -->
  <rect class="border-section" x="16" y="1497" width="530" height="144" rx="4"/>
  <text class="section-title-cyan" x="28" y="1517">THE COMP SYSTEM (4 FILES EVERY PROJECT NEEDS)</text>

  <rect fill="#F5F5F5" x="28" y="1525" width="506" height="14"/>
  <text class="table-header" x="34" y="1536">File</text>
  <text class="table-header" x="140" y="1536">Purpose</text>
  <text class="table-header" x="400" y="1536">Audience</text>

  <text class="code-cyan" x="34" y="1554">CLAUDE.md</text>
  <text class="table-cell" x="140" y="1554">How the AI should behave</text>
  <text class="table-cell" x="400" y="1554">Claude (every session)</text>

  <text class="code-cyan" x="34" y="1572">ORIENT.md</text>
  <text class="table-cell" x="140" y="1572">What a human needs to know</text>
  <text class="table-cell" x="400" y="1572">New team members</text>

  <text class="code-cyan" x="34" y="1590">MEMORY.md</text>
  <text class="table-cell" x="140" y="1590">Accumulated decisions, gotchas</text>
  <text class="table-cell" x="400" y="1590">Claude + humans</text>

  <text class="code-cyan" x="34" y="1608">PLAN.md</text>
  <text class="table-cell" x="140" y="1608">Roadmap, progress, next steps</text>
  <text class="table-cell" x="400" y="1608">Claude + humans</text>

  <text class="dim" x="28" y="1632">Separate behavior from orientation from knowledge from direction.</text>

  <!-- Model costs -->
  <rect class="border-section" x="554" y="1497" width="530" height="144" rx="4"/>
  <text class="section-title" x="566" y="1517">MODEL SELECTION &amp; COSTS</text>

  <rect fill="#F5F5F5" x="566" y="1525" width="506" height="14"/>
  <text class="table-header" x="572" y="1536">Model</text>
  <text class="table-header" x="722" y="1536">Input/1M</text>
  <text class="table-header" x="802" y="1536">Output/1M</text>
  <text class="table-header" x="892" y="1536">Best For</text>

  <text class="code-green" x="572" y="1554">claude-opus-4-5</text>
  <text class="table-cell" x="722" y="1554">$15.00</text>
  <text class="table-cell" x="802" y="1554">$75.00</text>
  <text class="table-cell" x="892" y="1554">Architecture, deep reasoning</text>

  <text class="code-cyan" x="572" y="1572">claude-sonnet-4-5</text>
  <text class="table-cell" x="722" y="1572">$3.00</text>
  <text class="table-cell" x="802" y="1572">$15.00</text>
  <text class="table-cell" x="892" y="1572">General development</text>

  <text class="code" x="572" y="1590">claude-haiku-4</text>
  <text class="table-cell" x="722" y="1590">$0.25</text>
  <text class="table-cell" x="802" y="1590">$1.25</text>
  <text class="table-cell" x="892" y="1590">Fast tasks, bulk operations</text>

  <line class="divider" x1="566" y1="1600" x2="1072" y2="1600"/>
  <text class="dim" x="572" y="1616">Rule: Never switch models mid-session. Spawn a subagent with the desired model.</text>
  <text class="dim" x="572" y="1632">/model &lt;name&gt; to switch  |  --model &lt;name&gt; at CLI launch</text>

  <!-- ==================== BOTTOM BAR ==================== -->
  <rect class="bar-bg" x="0" y="1656" width="1100" height="44"/>
  <text class="bar-text-sm" x="28" y="1682">github.com/KevinZai/cc-commander</text>
  <text class="bar-text-dim" x="310" y="1682">|</text>
  <text class="bar-text-sm" x="330" y="1682">MIT License</text>
  <text class="bar-text-dim" x="420" y="1682">|</text>
  <text class="bar-text-sm" x="440" y="1682">220+ Skills</text>
  <text class="bar-text-dim" x="540" y="1682">|</text>
  <text class="bar-text-sm" x="560" y="1682">84+ Commands</text>
  <text class="bar-text-dim" x="670" y="1682">|</text>
  <text class="bar-text-sm" x="690" y="1682">23 Hooks</text>
  <text class="bar-text-dim" x="776" y="1682">|</text>
  <text class="bar-text-sm" x="796" y="1682">6 Mega-Skills</text>
  <text class="bar-text-dim" x="910" y="1682">|</text>
  <text class="bar-text-sm" x="930" y="1682">v1.6 -- by Kevin Z</text>

</svg>