<svg xmlns="http://www.w3.org/2000/svg" width="920" height="367">
<defs>
<filter id="glow"><feGaussianBlur stdDeviation="1" result="b"/><feMerge><feMergeNode in="b"/><feMergeNode in="SourceGraphic"/></feMerge></filter>
<linearGradient id="t0" x1="0%" y1="0%" x2="100%" y2="0%"><stop offset="0%" style="stop-color:#ff0080"/><stop offset="100%" style="stop-color:#00ffff"/></linearGradient>
<linearGradient id="t1" x1="0%" y1="0%" x2="100%" y2="0%"><stop offset="0%" style="stop-color:#ffc800"/><stop offset="100%" style="stop-color:#ff3200"/></linearGradient>
<linearGradient id="t2" x1="0%" y1="0%" x2="100%" y2="0%"><stop offset="0%" style="stop-color:#ffff00"/><stop offset="100%" style="stop-color:#ff0064"/></linearGradient>
<linearGradient id="t3" x1="0%" y1="0%" x2="100%" y2="0%"><stop offset="0%" style="stop-color:#78b4ff"/><stop offset="100%" style="stop-color:#c88cff"/></linearGradient>
<linearGradient id="t4" x1="0%" y1="0%" x2="100%" y2="0%"><stop offset="0%" style="stop-color:#00b4ff"/><stop offset="100%" style="stop-color:#00ffb4"/></linearGradient>
<linearGradient id="t5" x1="0%" y1="0%" x2="100%" y2="0%"><stop offset="0%" style="stop-color:#50ff78"/><stop offset="100%" style="stop-color:#b464ff"/></linearGradient>
<linearGradient id="t6" x1="0%" y1="0%" x2="100%" y2="0%"><stop offset="0%" style="stop-color:#ff6432"/><stop offset="100%" style="stop-color:#ff3278"/></linearGradient>
<linearGradient id="t7" x1="0%" y1="0%" x2="100%" y2="0%"><stop offset="0%" style="stop-color:#a0a0a0"/><stop offset="100%" style="stop-color:#ffffff"/></linearGradient>
<linearGradient id="t8" x1="0%" y1="0%" x2="100%" y2="0%"><stop offset="0%" style="stop-color:#ff0050"/><stop offset="100%" style="stop-color:#c800ff"/></linearGradient>
<linearGradient id="t9" x1="0%" y1="0%" x2="100%" y2="0%"><stop offset="0%" style="stop-color:#bd93f9"/><stop offset="100%" style="stop-color:#ff79c6"/></linearGradient>
</defs>
<rect width="100%" height="100%" rx="8" fill="#0d1117"/>
<circle cx="18" cy="14" r="5" fill="#ff5f56"/>
<circle cx="34" cy="14" r="5" fill="#ffbd2e"/>
<circle cx="50" cy="14" r="5" fill="#27c93f"/>
<text x="460" y="20" text-anchor="middle" fill="#555" font-family="'SF Mono',monospace" font-size="11">10 Themes — Live Preview While You Navigate</text>
<line x1="0" y1="28" x2="920" y2="28" stroke="#222" stroke-width="1"/>
<rect x="22" y="38" width="200" height="16" rx="3" fill="url(#t0)" opacity="0.9"/>
<text x="32" y="50" fill="#000" font-family="'SF Mono',monospace" font-size="11" font-weight="bold">Cyberpunk</text>
<text x="240" y="50" fill="#888" font-family="'SF Mono',monospace" font-size="11">magenta -> cyan</text>
<rect x="550" y="39" width="14" height="14" rx="2" fill="#ff0080"/>
<rect x="568" y="39" width="14" height="14" rx="2" fill="#00ffff"/>
<text x="600" y="50" fill="url(#t0)" font-family="'SF Mono',monospace" font-size="11" font-weight="bold" filter="url(#glow)">SAMPLE TEXT</text>
<rect x="22" y="70" width="200" height="16" rx="3" fill="url(#t1)" opacity="0.9"/>
<text x="32" y="82" fill="#000" font-family="'SF Mono',monospace" font-size="11" font-weight="bold">Fire</text>
<text x="240" y="82" fill="#888" font-family="'SF Mono',monospace" font-size="11">gold -> red</text>
<rect x="550" y="71" width="14" height="14" rx="2" fill="#ffc800"/>
<rect x="568" y="71" width="14" height="14" rx="2" fill="#ff3200"/>
<text x="600" y="82" fill="url(#t1)" font-family="'SF Mono',monospace" font-size="11" font-weight="bold" filter="url(#glow)">SAMPLE TEXT</text>
<rect x="22" y="102" width="200" height="16" rx="3" fill="url(#t2)" opacity="0.9"/>
<text x="32" y="114" fill="#000" font-family="'SF Mono',monospace" font-size="11" font-weight="bold">Graffiti</text>
<text x="240" y="114" fill="#888" font-family="'SF Mono',monospace" font-size="11">yellow -> pink -> blue</text>
<rect x="550" y="103" width="14" height="14" rx="2" fill="#ffff00"/>
<rect x="568" y="103" width="14" height="14" rx="2" fill="#ff0064"/>
<text x="600" y="114" fill="url(#t2)" font-family="'SF Mono',monospace" font-size="11" font-weight="bold" filter="url(#glow)">SAMPLE TEXT</text>
<rect x="22" y="134" width="200" height="16" rx="3" fill="url(#t3)" opacity="0.9"/>
<text x="32" y="146" fill="#000" font-family="'SF Mono',monospace" font-size="11" font-weight="bold">Futuristic</text>
<text x="240" y="146" fill="#888" font-family="'SF Mono',monospace" font-size="11">blue -> purple</text>
<rect x="550" y="135" width="14" height="14" rx="2" fill="#78b4ff"/>
<rect x="568" y="135" width="14" height="14" rx="2" fill="#c88cff"/>
<text x="600" y="146" fill="url(#t3)" font-family="'SF Mono',monospace" font-size="11" font-weight="bold" filter="url(#glow)">SAMPLE TEXT</text>
<rect x="22" y="166" width="200" height="16" rx="3" fill="url(#t4)" opacity="0.9"/>
<text x="32" y="178" fill="#000" font-family="'SF Mono',monospace" font-size="11" font-weight="bold">Ocean</text>
<text x="240" y="178" fill="#888" font-family="'SF Mono',monospace" font-size="11">blue -> teal -> deep blue</text>
<rect x="550" y="167" width="14" height="14" rx="2" fill="#00b4ff"/>
<rect x="568" y="167" width="14" height="14" rx="2" fill="#00ffb4"/>
<text x="600" y="178" fill="url(#t4)" font-family="'SF Mono',monospace" font-size="11" font-weight="bold" filter="url(#glow)">SAMPLE TEXT</text>
<rect x="22" y="198" width="200" height="16" rx="3" fill="url(#t5)" opacity="0.9"/>
<text x="32" y="210" fill="#000" font-family="'SF Mono',monospace" font-size="11" font-weight="bold">Aurora</text>
<text x="240" y="210" fill="#888" font-family="'SF Mono',monospace" font-size="11">green -> cyan -> purple</text>
<rect x="550" y="199" width="14" height="14" rx="2" fill="#50ff78"/>
<rect x="568" y="199" width="14" height="14" rx="2" fill="#b464ff"/>
<text x="600" y="210" fill="url(#t5)" font-family="'SF Mono',monospace" font-size="11" font-weight="bold" filter="url(#glow)">SAMPLE TEXT</text>
<rect x="22" y="230" width="200" height="16" rx="3" fill="url(#t6)" opacity="0.9"/>
<text x="32" y="242" fill="#000" font-family="'SF Mono',monospace" font-size="11" font-weight="bold">Sunset</text>
<text x="240" y="242" fill="#888" font-family="'SF Mono',monospace" font-size="11">orange -> gold -> pink</text>
<rect x="550" y="231" width="14" height="14" rx="2" fill="#ff6432"/>
<rect x="568" y="231" width="14" height="14" rx="2" fill="#ff3278"/>
<text x="600" y="242" fill="url(#t6)" font-family="'SF Mono',monospace" font-size="11" font-weight="bold" filter="url(#glow)">SAMPLE TEXT</text>
<rect x="22" y="262" width="200" height="16" rx="3" fill="url(#t7)" opacity="0.9"/>
<text x="32" y="274" fill="#000" font-family="'SF Mono',monospace" font-size="11" font-weight="bold">Monochrome</text>
<text x="240" y="274" fill="#888" font-family="'SF Mono',monospace" font-size="11">gray -> white</text>
<rect x="550" y="263" width="14" height="14" rx="2" fill="#a0a0a0"/>
<rect x="568" y="263" width="14" height="14" rx="2" fill="#ffffff"/>
<text x="600" y="274" fill="url(#t7)" font-family="'SF Mono',monospace" font-size="11" font-weight="bold" filter="url(#glow)">SAMPLE TEXT</text>
<rect x="22" y="294" width="200" height="16" rx="3" fill="url(#t8)" opacity="0.9"/>
<text x="32" y="306" fill="#000" font-family="'SF Mono',monospace" font-size="11" font-weight="bold">Rainbow</text>
<text x="240" y="306" fill="#888" font-family="'SF Mono',monospace" font-size="11">full spectrum</text>
<rect x="550" y="295" width="14" height="14" rx="2" fill="#ff0050"/>
<rect x="568" y="295" width="14" height="14" rx="2" fill="#c800ff"/>
<text x="600" y="306" fill="url(#t8)" font-family="'SF Mono',monospace" font-size="11" font-weight="bold" filter="url(#glow)">SAMPLE TEXT</text>
<rect x="22" y="326" width="200" height="16" rx="3" fill="url(#t9)" opacity="0.9"/>
<text x="32" y="338" fill="#000" font-family="'SF Mono',monospace" font-size="11" font-weight="bold">Dracula</text>
<text x="240" y="338" fill="#888" font-family="'SF Mono',monospace" font-size="11">purple -> pink</text>
<rect x="550" y="327" width="14" height="14" rx="2" fill="#bd93f9"/>
<rect x="568" y="327" width="14" height="14" rx="2" fill="#ff79c6"/>
<text x="600" y="338" fill="url(#t9)" font-family="'SF Mono',monospace" font-size="11" font-weight="bold" filter="url(#glow)">SAMPLE TEXT</text>
</svg>