<svg xmlns="http://www.w3.org/2000/svg" width="920" height="200"><defs><linearGradient id="g1" x1="0%" y1="0%" x2="100%" y2="0%"><stop offset="0%" style="stop-color:#ff0080"/><stop offset="100%" style="stop-color:#00ffff"/></linearGradient><linearGradient id="g2" x1="0%" y1="0%" x2="0%" y2="100%"><stop offset="0%" style="stop-color:#ff0080"/><stop offset="100%" style="stop-color:#00ffff"/></linearGradient><filter id="glow"><feGaussianBlur stdDeviation="2" result="b"/><feMerge><feMergeNode in="b"/><feMergeNode in="SourceGraphic"/></feMerge></filter></defs><rect width="100%" height="100%" rx="10" fill="#0d1117"/><circle cx="20" cy="16" r="5" fill="#ff5f56"/><circle cx="36" cy="16" r="5" fill="#ffbd2e"/><circle cx="52" cy="16" r="5" fill="#27c93f"/><text x="460" text-anchor="middle" y="40" fill="url(#g1)" font-family="'SF Mono','Fira Code',monospace" font-size="14" font-weight="bold" xml:space="preserve">STATS DASHBOARD</text><rect x="40" y="55" width="400" height="60" rx="6" fill="#161b22" stroke="#30363d" stroke-width="1.5"/><text x="60" y="78" fill="#666" font-family="'SF Mono','Fira Code',monospace" font-size="11" xml:space="preserve">Sessions:</text><text x="140" y="78" fill="#00ffff" font-family="'SF Mono','Fira Code',monospace" font-size="12" font-weight="bold" xml:space="preserve">42</text><text x="220" y="78" fill="#666" font-family="'SF Mono','Fira Code',monospace" font-size="11" xml:space="preserve">Streak:</text><text x="290" y="78" fill="#ff0080" font-family="'SF Mono','Fira Code',monospace" font-size="12" font-weight="bold" xml:space="preserve">7 days</text><text x="60" y="100" fill="#666" font-family="'SF Mono','Fira Code',monospace" font-size="11" xml:space="preserve">Badges:</text><text x="140" y="100" fill="#00ffff" font-family="'SF Mono','Fira Code',monospace" font-size="12" font-weight="bold" xml:space="preserve">12</text><text x="220" y="100" fill="#666" font-family="'SF Mono','Fira Code',monospace" font-size="11" xml:space="preserve">Cost:</text><text x="290" y="100" fill="#ff0080" font-family="'SF Mono','Fira Code',monospace" font-size="12" font-weight="bold" xml:space="preserve">$8.50</text><rect x="480" y="55" width="400" height="60" rx="6" fill="#161b22" stroke="#30363d" stroke-width="1.5"/><text x="500" y="78" fill="#666" font-family="'SF Mono','Fira Code',monospace" font-size="11" xml:space="preserve">Cost trend:</text><g transform="translate(600,68)"><rect x="0" y="8" width="8" height="4" rx="1" fill="#00ffff" opacity="0.6"/><rect x="12" y="2" width="8" height="10" rx="1" fill="#00ffff" opacity="0.7"/><rect x="24" y="6" width="8" height="6" rx="1" fill="#00ffff" opacity="0.65"/><rect x="36" y="0" width="8" height="12" rx="1" fill="#00ffff" opacity="0.9"/><rect x="48" y="3" width="8" height="9" rx="1" fill="#00ffff" opacity="0.75"/><rect x="68" y="5" width="8" height="7" rx="1" fill="#00ffff" opacity="0.7"/></g><text x="500" y="100" fill="#666" font-family="'SF Mono','Fira Code',monospace" font-size="11" xml:space="preserve">Activity:</text><g transform="translate(600,90)"><rect x="0" y="0" width="10" height="10" rx="2" fill="#ff0080" opacity="0.5"/><rect x="14" y="0" width="10" height="10" rx="2" fill="#ff0080" opacity="0.5"/><rect x="32" y="0" width="10" height="10" rx="2" fill="#ff0080" opacity="0.7"/><rect x="46" y="0" width="10" height="10" rx="2" fill="#ff0080" opacity="0.7"/><rect x="64" y="0" width="10" height="10" rx="2" fill="#ff0080" opacity="1.0"/><rect x="78" y="0" width="10" height="10" rx="2" fill="#ff0080" opacity="1.0"/><rect x="96" y="0" width="10" height="10" rx="2" fill="#ff0080" opacity="0.3"/><rect x="110" y="0" width="10" height="10" rx="2" fill="#ff0080" opacity="0.3"/><rect x="128" y="0" width="10" height="10" rx="2" fill="#ff0080" opacity="0.7"/><rect x="142" y="0" width="10" height="10" rx="2" fill="#ff0080" opacity="0.7"/></g><g transform="translate(60,128)"><rect x="0" y="0" width="10" height="10" rx="2" fill="#ff3300"/><rect x="14" y="0" width="10" height="10" rx="2" fill="#ff5500"/><rect x="28" y="0" width="10" height="10" rx="2" fill="#ff7700"/><rect x="42" y="0" width="10" height="10" rx="2" fill="#ff9900"/><rect x="56" y="0" width="10" height="10" rx="2" fill="#ffbb00"/><rect x="70" y="0" width="10" height="10" rx="2" fill="#ffdd00"/><rect x="84" y="0" width="10" height="10" rx="2" fill="#ffff00"/></g><text x="155" y="138" fill="#ff0080" font-family="'SF Mono','Fira Code',monospace" font-size="12" font-weight="bold" xml:space="preserve">7-day streak!</text><text x="60" y="165" fill="#00ffff" font-family="'SF Mono','Fira Code',monospace" font-size="11" font-weight="bold" xml:space="preserve">Level: POWER</text><rect x="160" y="155" width="300" height="14" rx="6" fill="#1a1f26" stroke="#333" stroke-width="1.5"/><rect x="160" y="155" width="300" height="14" rx="4" fill="url(#g1)" opacity="0.7"/><text x="470" y="167" fill="#00ffff" font-family="'SF Mono','Fira Code',monospace" font-size="10" xml:space="preserve">100%</text></svg>